<svg width="169" height="46" viewBox="0 0 169 46" fill="none" xmlns="http://www.w3.org/2000/svg">
<mask id="mask0_330_517" style="mask-type:luminance" maskUnits="userSpaceOnUse" x="0" y="0" width="169" height="46">
<path d="M169 0H0V46H169V0Z" fill="white"/>
</mask>
<g mask="url(#mask0_330_517)">
<path d="M38.7319 17.951C38.7619 17.8865 38.7669 17.8715 38.7714 17.8615C38.8164 17.533 38.6324 17.095 38.8514 16.891C39.0854 16.667 39.5229 16.8215 39.8714 16.8165C40.6229 16.8065 41.3794 16.8365 42.1309 16.8015C42.5489 16.7815 42.6284 16.931 42.6234 17.314C42.6089 21.992 42.6139 26.6705 42.6189 31.3485C42.6189 31.8115 42.6234 32.279 42.6884 32.737C42.7879 33.4385 43.2459 33.618 43.8679 33.2545C44.4499 32.916 44.8184 32.354 45.3009 31.911C46.0724 31.194 46.3364 30.358 46.3214 29.278C46.2664 24.2665 46.3064 19.25 46.3114 14.2335C46.3164 10.1475 49.6904 5.97701 54.6424 6.33051C56.2399 6.44501 57.6234 7.102 58.7334 8.2415C59.8034 9.3415 59.5894 10.894 58.3304 11.576C57.5489 11.999 56.6929 11.8645 56.0959 11.2075C55.6579 10.72 55.2199 10.232 54.8614 9.67501C54.4484 9.03801 53.9159 8.54501 53.1544 8.35601C51.7809 8.01751 50.5269 8.953 50.3474 10.456C50.2084 11.6155 50.1584 12.785 50.1534 13.955C50.1434 17.493 50.1484 21.0365 50.1534 24.575C50.1534 24.6795 50.1134 24.794 50.2279 24.9285C51.1339 24.0925 52.0444 23.271 52.9404 22.435C53.8314 21.604 54.7169 20.768 55.6029 19.932C55.8369 19.713 56.1009 19.479 55.9714 19.1155C55.8419 18.7425 55.5084 18.618 55.1449 18.5435C54.9859 18.5135 54.7269 18.638 54.6924 18.409C54.6424 18.1005 54.6624 17.767 54.6974 17.4535C54.7119 17.339 54.8914 17.379 54.9959 17.379C57.5639 17.379 60.1319 17.379 62.6999 17.374C62.9584 17.374 63.0579 17.4335 63.0629 17.717C63.0729 18.4985 63.0879 18.4985 62.3264 18.5485C60.7439 18.658 59.3854 19.29 58.2209 20.345C56.7129 21.7135 55.2199 23.097 53.7219 24.4705C53.5824 24.6 53.4234 24.6945 53.6174 24.9285C55.6479 27.387 57.5589 29.945 59.6339 32.3635C60.1519 32.966 60.8084 33.394 61.5454 33.7025C62.7594 34.22 63.8294 33.9565 64.7799 33.1055C65.4469 32.503 66.0244 31.8165 66.6064 31.1295C66.8004 30.9005 66.7959 30.7065 66.7259 30.433C65.9644 27.427 65.9994 24.4455 67.3134 21.604C69.4779 16.921 74.6339 15.8955 78.0829 17.4785C79.4414 18.1005 80.4619 19.086 81.1334 20.4245C81.7109 21.584 81.5119 22.5295 80.6609 23.505C79.8594 24.426 78.8844 24.7445 77.7194 24.7345C75.2164 24.7195 72.7129 24.7295 70.2099 24.7295C69.5874 24.7295 69.5974 24.7295 69.6574 25.3265C69.9459 28.198 71.1004 30.6665 73.2554 32.5975C75.1714 34.3095 77.4259 35.1505 79.9989 34.469C81.4719 34.0755 82.7264 33.205 83.7414 32.045C84.2989 31.408 84.8264 30.7465 85.4184 30.119C85.4534 30.841 85.5879 31.5325 85.0854 32.2045C84.4434 33.0605 83.8909 33.976 83.1094 34.7325C81.5269 36.2655 79.6159 36.962 77.4609 37.032C75.5744 37.0915 73.7234 36.803 71.9364 36.166C70.0404 35.484 68.6369 34.235 67.6119 32.533C67.5274 32.3985 67.4524 32.254 67.3379 32.055C67.1439 32.344 66.9749 32.6025 66.8004 32.8565C65.7954 34.3095 64.5414 35.469 62.8939 36.156C61.3459 36.798 59.8429 36.629 58.4149 35.8225C56.9369 34.9865 55.8319 33.7325 54.8019 32.4135C53.3834 30.592 51.9599 28.7805 50.5369 26.964C50.4369 26.8395 50.3374 26.72 50.2179 26.5855C50.0939 26.725 50.1434 26.8695 50.1434 27.004C50.1434 28.845 50.1534 30.6865 50.1534 32.533C50.1534 32.8865 50.2134 33.215 50.5664 33.379C50.9199 33.543 51.2234 33.399 51.4874 33.16C52.0494 32.6425 52.6069 32.12 53.2389 31.5325C53.2389 32.1695 53.2439 32.737 53.2339 33.2995C53.2339 33.374 53.1944 33.4535 53.1444 33.5135C52.3284 34.5735 51.4524 35.569 50.2179 36.166C49.6109 36.4595 48.9739 36.604 48.3069 36.5045C47.3069 36.35 46.7594 35.733 46.5104 34.484C46.3909 33.8915 46.2614 33.2995 46.2714 32.6675C45.7939 33.329 45.3309 33.986 44.7684 34.5735C44.0969 35.275 43.3799 35.902 42.4694 36.2755C40.7274 36.992 39.0554 36.171 38.8714 34.3695C38.8664 34.3295 38.8264 34.2895 38.7714 34.2C38.3339 34.693 37.8109 35.056 37.3084 35.4445C35.4024 36.9225 32.0284 36.9475 29.7539 35.1905C28.5494 34.26 27.5989 33.135 26.9769 31.7515C26.8074 31.3785 26.6979 31.3785 26.4344 31.642C25.0659 33.0105 23.5529 34.19 21.8259 35.076C17.9639 37.052 13.9279 37.679 9.77241 36.2755C4.66591 34.5535 1.65492 30.8705 0.684417 25.65C-0.176083 21.0215 0.808916 16.727 3.74042 12.9795C5.85042 10.282 8.7024 8.79401 12.0664 8.26151C15.0129 7.79351 17.8044 8.2715 20.4524 9.655C21.4574 10.1775 22.0199 9.9335 22.4229 8.8685C22.4479 8.809 22.4729 8.749 22.4979 8.6895C22.7169 8.102 23.0849 7.928 23.6969 8.077C23.9109 8.132 23.8664 8.27651 23.8764 8.41051C24.0009 10.1525 24.1249 11.8895 24.2444 13.6315C24.3289 14.8605 24.3939 16.09 24.4934 17.319C24.5184 17.6425 24.4584 17.742 24.1054 17.772C23.5629 17.8165 23.3289 17.6425 23.1794 17.11C22.7514 15.607 22.0944 14.1985 21.0994 12.9795C19.7109 11.287 17.8994 10.3415 15.7294 10.1225C13.5049 9.8985 11.4094 10.292 9.5879 11.6655C8.25941 12.666 7.31391 13.9945 6.74141 15.5275C5.17391 19.723 4.95992 23.993 6.34842 28.278C7.12942 30.6965 8.77691 32.3735 11.0909 33.4885C13.2159 34.5135 15.4459 34.927 17.7249 34.633C19.9299 34.3495 21.9999 33.5235 23.7819 32.115C24.5629 31.498 25.2944 30.826 26.0409 30.169C26.2799 29.96 26.3099 29.736 26.2649 29.4425C25.6329 25.5655 26.6734 22.1515 29.3259 19.295C31.4159 17.0455 34.0539 16.3485 37.0499 17.09C37.6469 17.2545 38.1794 17.583 38.7319 17.951ZM38.7764 27.4565C38.7764 26.048 38.7914 24.64 38.7714 23.2315C38.7569 22.221 38.4829 21.2705 37.9354 20.4195C36.5769 18.2995 34.1384 18.011 32.3169 19.7425C31.6499 20.375 31.1919 21.136 30.8834 21.987C30.1469 24.013 30.1519 26.093 30.4554 28.188C30.6744 29.691 31.2469 31.04 32.2869 32.1795C34.1384 34.21 36.5269 34.3145 38.4929 32.4435C38.6919 32.254 38.7814 32.06 38.7764 31.7765C38.7714 30.338 38.7764 28.9 38.7764 27.4565ZM73.1209 23.0275C74.0269 22.9925 75.1514 23.087 76.2714 22.9775C76.6494 22.943 76.9629 22.7985 77.1024 22.425C77.2669 21.9775 77.3014 21.5045 77.1424 21.0615C76.5699 19.474 74.6989 18.4935 73.0364 18.8865C71.3494 19.285 69.8614 21.002 69.6919 22.719C69.6624 23.0075 69.7919 23.0375 70.0204 23.0325C70.9809 23.0225 71.9414 23.0275 73.1209 23.0275Z" fill="white"/>
<path d="M152.794 20.2555C153.227 19.733 153.595 19.28 153.974 18.837C156.193 16.239 160.185 16.239 162.633 18.638C164.111 20.086 164.873 21.9075 165.176 23.9085C165.5 26.078 165.385 28.248 164.922 30.398C164.833 30.821 164.688 31.224 164.44 31.5925C164.27 31.846 164.35 32.971 164.534 33.215C164.778 33.5335 165.301 33.5285 165.699 33.185C166.445 32.548 167.102 31.826 167.704 31.055C167.968 30.7165 168.247 30.388 168.575 30.0695C168.565 30.7265 168.769 31.3735 168.331 32.0155C167.58 33.115 166.883 34.245 165.878 35.1455C165.012 35.922 164.076 36.554 162.852 36.534C162.066 36.5245 161.409 36.2205 161.001 35.529C160.851 35.27 160.717 35.305 160.508 35.4195C159.647 35.8875 158.751 36.2805 157.776 36.4395C156.084 36.7085 154.486 36.4695 153.048 35.479C152.998 35.4445 152.938 35.4145 152.884 35.3845C152.724 35.499 152.794 35.6535 152.794 35.7875C152.789 37.44 152.789 39.0875 152.794 40.7395C152.794 41.1575 152.879 41.5655 152.943 41.974C153.137 43.2875 154.74 43.5165 155.561 42.6805C155.775 42.4615 155.939 42.2075 156.099 41.944C156.188 41.7995 156.193 41.556 156.392 41.541C156.756 41.511 157.129 41.521 157.497 41.541C157.631 41.546 157.582 41.685 157.562 41.77C156.95 43.9595 155.486 45.522 153.411 45.9305C151.072 46.393 149.191 44.8155 149.032 42.337C148.862 39.744 148.992 37.1465 148.952 34.5535C148.942 33.991 148.952 33.4335 148.952 32.8215C148.708 32.961 148.653 33.185 148.549 33.364C147.877 34.5185 147.001 35.489 145.906 36.2455C145.095 36.808 144.204 37.1565 143.194 36.9175C142.641 36.783 142.134 36.539 141.89 35.967C141.786 35.718 141.651 35.8425 141.517 35.912C139.949 36.6885 138.267 36.6485 136.61 36.4745C133.917 36.191 132.071 34.5685 130.667 32.3635C130.583 32.2295 130.503 32.09 130.384 31.901C130.085 32.354 129.816 32.782 129.533 33.2C128.687 34.429 127.726 35.534 126.353 36.196C125.701 36.5095 125.014 36.6535 124.297 36.4795C123.173 36.211 122.531 35.33 122.481 33.9115C122.436 32.5975 122.471 31.284 122.456 29.97C122.421 27.5365 122.555 25.0975 122.361 22.669C122.336 22.3505 122.302 22.027 122.217 21.7235C121.829 20.2405 120.595 19.5585 118.962 19.917C117.559 20.2255 116.573 21.166 115.623 22.1565C115.493 22.291 115.538 22.46 115.538 22.6145C115.538 25.9635 115.538 29.313 115.533 32.6625C115.533 32.981 115.608 33.2295 115.902 33.379C116.215 33.538 116.504 33.4535 116.753 33.2595C117.33 32.8215 117.813 32.284 118.33 31.7815C118.395 31.717 118.465 31.662 118.604 31.5325C118.604 32.1695 118.604 32.722 118.604 33.2745C118.604 33.394 118.554 33.4935 118.484 33.578C117.738 34.5285 116.952 35.4395 115.877 36.0315C115.006 36.5145 114.09 36.758 113.119 36.335C112.577 36.1015 112.199 35.723 112.049 35.126C111.84 34.2995 111.681 33.4785 111.681 32.6175C111.696 26.964 111.646 21.3055 111.711 15.652C111.731 13.8405 111.88 11.999 112.746 10.3265C114.583 6.76851 119.111 5.25051 122.535 7.05201C123.202 7.40551 123.834 7.8185 124.302 8.4355C125.293 9.7345 124.75 11.347 123.177 11.76C122.521 11.934 121.973 11.6755 121.525 11.2275C121.028 10.725 120.59 10.1725 120.191 9.59C119.684 8.8385 119.012 8.32101 118.066 8.27651C116.822 8.22151 115.867 9.1425 115.717 10.526C115.578 11.8 115.533 13.079 115.533 14.363C115.533 16.249 115.533 18.135 115.533 20.151C115.892 19.8025 116.165 19.5285 116.444 19.26C117.136 18.588 117.847 17.941 118.718 17.508C122.187 15.781 125.716 17.722 126.114 21.564C126.243 22.8235 126.298 24.0875 126.298 25.3515C126.303 27.785 126.298 30.2235 126.298 32.6575C126.298 32.951 126.288 33.2445 126.621 33.389C126.95 33.5335 127.258 33.4685 127.522 33.2545C128.348 32.5875 129.055 31.8015 129.742 30.995C129.896 30.811 129.811 30.6715 129.752 30.5125C128.881 28.049 128.856 25.5705 129.772 23.132C130.946 19.9965 132.957 17.6725 136.431 17.0505C142.333 16 145.976 19.927 146.897 24.202C147.494 26.979 146.941 29.6065 145.642 32.1C145.483 32.4035 145.463 32.697 145.493 33.0255C145.533 33.424 145.772 33.4985 146.095 33.4535C146.439 33.404 146.717 33.215 146.961 32.976C147.603 32.344 148.181 31.662 148.763 30.975C148.937 30.766 148.942 30.5425 148.942 30.3035C148.942 26.058 148.937 21.813 148.942 17.568C148.942 16.8315 148.818 16.891 149.644 16.891C150.56 16.886 151.475 16.901 152.386 16.886C152.699 16.881 152.799 16.9755 152.794 17.294C152.784 18.23 152.794 19.2005 152.794 20.2555ZM142.955 27.8695C142.92 27.0585 142.89 26.2125 142.766 25.3715C142.482 23.4755 141.895 21.6985 140.661 20.1905C139.571 18.862 137.953 18.364 136.445 18.867C134.873 19.3895 134.121 20.6185 133.738 22.1015C133.196 24.197 133.285 26.322 133.683 28.432C133.997 30.0895 134.584 31.637 135.649 32.966C137.665 35.479 141.114 34.9515 142.318 31.9605C142.836 30.6515 142.89 29.278 142.955 27.8695ZM152.794 27.0985C152.824 28.4025 152.724 29.96 152.879 31.5075C152.933 32.055 153.018 32.5825 153.342 33.0505C154.407 34.5935 156.586 35.2255 158.303 34.459C159.548 33.9015 160.219 32.8315 160.667 31.622C161.374 29.716 161.384 27.7355 161.11 25.7495C160.911 24.3215 160.468 22.9775 159.597 21.808C158.204 19.937 155.915 19.7375 154.202 21.3305C153.804 21.7035 153.431 22.1015 153.033 22.47C152.854 22.639 152.794 22.8235 152.794 23.062C152.799 24.3215 152.794 25.5855 152.794 27.0985Z" fill="white"/>
<path d="M107.829 12.999C107.829 14.4875 107.819 15.9805 107.839 17.4685C107.844 17.8215 107.754 17.941 107.386 17.931C106.565 17.9115 106.57 17.931 106.475 17.095C106.376 16.214 106.137 15.373 105.823 14.547C104.604 11.312 101.145 10.013 98.771 10.267C96.855 10.471 95.108 12.0485 94.9885 13.8305C94.914 14.985 95.4365 15.9005 96.2825 16.642C97.3625 17.588 98.5965 18.3045 99.826 19.031C101.633 20.096 103.559 20.947 105.31 22.1165C106.45 22.878 107.545 23.6745 108.321 24.834C110.959 28.7705 109.431 33.6525 105.126 35.728C102.877 36.813 100.488 36.8825 98.084 36.2705C96.8595 35.957 95.6505 35.5785 94.436 35.2405C94.267 35.1905 94.0925 35.1605 93.9185 35.1405C93.361 35.081 93.167 35.2155 92.998 35.743C92.978 35.8025 92.963 35.8675 92.943 35.927C92.8635 36.146 92.908 36.5045 92.709 36.569C92.4055 36.6685 92.047 36.624 91.709 36.609C91.45 36.599 91.5395 36.375 91.5395 36.2405C91.5295 35.041 91.5345 33.837 91.5345 32.6375C91.5345 30.8755 91.5445 29.114 91.5295 27.352C91.5245 27.009 91.5995 26.8795 91.9725 26.8895C92.764 26.909 92.759 26.8895 92.918 27.6605C93.0375 28.223 93.167 28.7855 93.3115 29.343C94.038 32.11 95.909 33.6675 98.6215 34.3095C100.05 34.648 101.498 34.683 102.877 34.1005C104.355 33.4785 105.37 32.4235 105.554 30.7515C105.698 29.4475 105.047 28.442 104.231 27.5265C103.748 26.984 103.151 26.576 102.524 26.2125C100.598 25.0975 98.6615 23.998 96.755 22.848C95.551 22.1215 94.3765 21.345 93.366 20.34C89.524 16.503 91.3455 10.526 95.989 8.739C98.5715 7.744 101.14 7.928 103.658 9.008C104.221 9.247 104.803 9.411 105.385 9.59C105.773 9.7095 106.081 9.5255 106.261 9.177C106.38 8.953 106.475 8.70451 106.515 8.45551C106.565 8.14201 106.714 8.082 106.998 8.082C107.829 8.087 107.829 8.07249 107.829 8.92349V12.999Z" fill="white"/>
<path d="M64.5911 5.07151C64.2476 5.63351 64.0286 6.19601 63.2721 6.03701C63.0436 5.98701 62.9091 6.09151 62.9041 6.34551C62.8991 6.51951 62.8591 6.6935 62.8591 6.868C62.8541 9.2715 62.8541 11.6755 62.8591 14.079C62.8591 14.6915 62.9786 14.741 63.5811 14.6765C64.4566 14.577 64.9596 13.9995 65.4521 13.3725C65.5866 13.1985 65.5516 13.009 65.5516 12.82C65.5566 10.4165 65.5566 8.0125 65.5516 5.609C65.5466 4.708 65.6261 3.81701 65.8401 2.94601C66.4821 0.343506 69.7621 -0.870987 71.9316 0.682013C72.2751 0.925513 72.5736 1.20951 72.6831 1.64751C72.8076 2.14501 72.6186 2.60801 72.1656 2.87151C71.7131 3.13551 71.2601 3.09551 70.8966 2.71751C70.6331 2.43851 70.4041 2.13001 70.1751 1.82151C69.7621 1.26401 69.2246 1.01051 68.6921 1.16451C68.0601 1.35351 67.8211 1.87101 67.7861 2.45351C67.7166 3.60301 67.7066 4.75801 67.6766 5.90751C67.6666 6.38501 67.6766 6.85801 67.6766 7.49001C67.9751 7.20151 68.1745 7.007 68.3735 6.818C68.9505 6.2605 69.6026 5.83251 70.4291 5.76301C72.1111 5.62351 73.2606 6.599 73.4396 8.2815C73.6341 10.088 73.4996 11.8995 73.5396 13.706C73.5441 13.9 73.5396 14.089 73.5396 14.283C73.5396 14.4475 73.5396 14.6165 73.7336 14.6815C73.8926 14.731 74.0571 14.716 74.1811 14.592C74.5146 14.2685 74.838 13.935 75.1665 13.6065C75.346 13.427 75.2166 13.248 75.1816 13.069C74.8281 11.4165 74.8136 9.789 75.5651 8.2365C76.6546 5.982 79.4266 5.0365 81.5666 6.161C82.1641 6.4745 82.6316 6.92251 82.9701 7.50501C83.5526 8.52001 83.0501 9.6995 81.9051 9.9885C81.6566 10.053 81.4026 10.078 81.1436 10.073C79.8451 10.068 78.546 10.078 77.242 10.063C76.9035 10.058 76.8091 10.1375 76.8636 10.501C77.1626 12.4665 78.0331 14.069 79.8646 14.97C81.5916 15.821 82.9651 15.408 84.3191 14.084C84.6921 13.721 85.0005 13.293 85.389 12.835C85.4886 13.3325 85.4436 13.696 85.2096 14.084C84.4136 15.413 83.3781 16.463 81.7906 16.6325C79.4516 16.886 77.2471 16.5875 75.7741 14.4225C75.5746 14.134 75.5001 14.2785 75.3856 14.4575C75.0126 15.0445 74.5846 15.577 74.0121 15.9855C73.7731 16.1545 73.5246 16.289 73.2406 16.3685C72.2406 16.652 71.439 16.0995 71.419 15.0645C71.3895 13.477 71.3946 11.8945 71.4041 10.307C71.4091 9.75951 71.3646 9.21701 71.3146 8.67951C71.2251 7.72901 70.4836 7.2215 69.5431 7.4305C68.8116 7.5895 68.3036 8.077 67.7911 8.56C67.6566 8.6845 67.6665 8.8485 67.6665 9.008C67.6665 10.72 67.6665 12.437 67.6665 14.149C67.6665 14.348 67.6666 14.542 67.8706 14.6515C68.0996 14.766 68.2741 14.6465 68.4331 14.502C68.7266 14.2385 69.0156 13.9695 69.3191 13.691C69.5581 14.4725 69.2396 15.02 68.7171 15.5025C68.1896 15.9905 67.6566 16.438 66.8806 16.433C66.2681 16.428 65.8851 16.1495 65.7211 15.5575C65.6361 15.244 65.5766 14.9155 65.5021 14.577C64.6706 15.7565 63.5861 16.3535 62.1376 16.229C61.4511 16.1695 60.9035 15.6815 60.8135 14.995C60.774 14.6965 60.7491 14.388 60.7491 14.089C60.7441 11.591 60.7391 9.09251 60.7541 6.58901C60.7591 6.16601 60.6646 5.95701 60.2016 6.02201C59.9976 6.05151 59.7836 6.03201 59.5746 6.02201C59.4251 6.01701 59.2211 6.08651 59.2011 5.84251C59.1866 5.64351 59.1165 5.4195 59.3605 5.2905C60.709 4.5835 61.5551 3.45401 62.0581 2.04551C62.1626 1.74701 62.3516 1.64751 62.6451 1.70701C62.9736 1.77151 62.8346 2.0355 62.8391 2.2145C62.8591 2.792 62.8441 3.36901 62.8441 3.94651C62.8441 5.06651 62.8441 5.0665 63.9441 5.0665C64.1481 5.0715 64.3326 5.07151 64.5911 5.07151ZM78.7796 9.04751C79.2576 9.04751 79.7401 9.04751 80.2181 9.04751C80.2681 9.04751 80.3126 9.0425 80.3626 9.038C80.6911 9.028 80.8501 8.85851 80.8751 8.53001C80.9296 7.92301 80.5066 7.296 79.8546 6.9975C78.5756 6.42 77.1776 7.45001 76.9186 8.77401C76.8736 9.00301 77.0081 9.04751 77.1971 9.04751C77.7246 9.04751 78.2521 9.04751 78.7796 9.04751Z" fill="white"/>
</g>
</svg>
